<?xml version="1.0" encoding="utf-8"?>
<!-- Generator: Adobe Illustrator 21.0.2, SVG Export Plug-In . SVG Version: 6.00 Build 0)  -->
<svg version="1.1" id="Layer_1" xmlns="http://www.w3.org/2000/svg" xmlns:xlink="http://www.w3.org/1999/xlink" x="0px" y="0px"
	 viewBox="0 0 50 50" style="enable-background:new 0 0 50 50;" xml:space="preserve">
<style type="text/css">
	.st0{fill:#FFDE17;}
	.st1{fill:#FFFFFF;}
	.st2{fill:#454546;}
	.st3{fill:#A2A2A2;}
	.st4{fill:#D1D3D4;}
	.st5{fill:#A7A9AC;}
	.st6{fill:#333333;}
	.st7{fill:#6D6E71;}
</style>
<path d="M28.8,3.8l-6,3.4c0,0-0.4,0.1-0.3,0.4c0,0.3,0,16.3,0,16.3l6.4-3.7L28.8,3.8"/>
<polyline class="st0" points="28.9,20.4 36.3,24.6 36.3,7.1 28.9,11.4 28.9,20.4 "/>
<polyline class="st1" points="36.3,24.6 28.9,20.4 15,28.5 22.9,33 36.3,24.6 "/>
<path d="M15,8c0.1-0.2,0.3-0.2,0.5-0.3c0.8-0.5,1.7-1,2.5-1.5c0.7-0.4,1.3-0.8,2-1.1c0.6-0.4,1.2-0.7,1.9-1.1
	c0.5-0.3,1.1-0.6,1.6-0.9c0.8-0.5,1.7-1,2.5-1.5c0.7-0.4,1.5-0.8,2.2-1.3c0.2-0.1,0.4-0.2,0.6-0.4c0,0,0.1,0,0.1,0
	c0.4,0.3,0.8,0.5,1.2,0.7c0.7,0.4,1.5,0.9,2.2,1.3c0.7,0.4,1.5,0.8,2.2,1.3c0.8,0.4,1.5,0.9,2.3,1.3c-0.3,0.2-0.6,0.4-1,0.6
	c-1.7,1-3.4,2-5.1,2.9c-1.8,1-3.5,2-5.3,3.1c-0.8,0.5-1.7,1-2.6,1.5c-0.1,0-0.2-0.1-0.3-0.2c-0.6-0.4-1.2-0.7-1.9-1.1
	c-1.6-0.9-3.3-1.9-4.9-2.8C15.5,8.3,15.3,8.1,15,8z"/>
<path d="M24.8,32.1c0-0.1-0.1-0.2-0.2-0.2c-0.5-0.3-1-0.5-1.4-0.8c-0.1,0-0.2-0.1-0.2-0.2c0.6-0.4,1.3-0.7,1.9-1.1c0,0,0,0,0,0
	c0,0.7,0,1.3,0,2c0,0.1,0,0.2,0,0.2C24.9,32.1,24.9,32.1,24.8,32.1z"/>
<path class="st2" d="M15,28.6C15,28.6,15,28.6,15,28.6C15,28.7,14.9,28.6,15,28.6z"/>
<polygon class="st0" points="7.1,33.9 9.1,35.1 9.1,32.8 "/>
<polygon points="7.1,33.9 7.1,31.7 9.1,32.8 "/>
<polygon class="st0" points="11.2,31.7 13.1,30.5 7,27 5.1,28.2 "/>
<polyline class="st1" points="7.1,36.2 11.2,38.6 11.2,36.3 11.2,31.6 9.1,30.5 7.1,29.3 7.1,29.3 5.1,28.2 5.1,39.6 7.1,40.8 
	7.1,36.2 7.1,31.7 9.1,32.8 9.1,35.1 7.1,33.9 "/>
<polygon class="st0" points="7.1,33.9 9.1,35.1 9.1,32.8 "/>
<polygon class="st1" points="13.1,32.8 13.1,44.2 18.9,47.7 18.9,45.4 15,43.1 15,36.3 18.9,38.6 18.9,36.2 "/>
<polygon class="st0" points="18.9,36.2 21,35.1 15,31.7 13.1,32.8 "/>
<polygon class="st0" points="18.9,45.4 15,43.1 17,42 21,44.3 "/>
<path class="st3" d="M23,45.4C22.9,45.4,22.9,45.4,23,45.4c-0.1-2.2-0.1-4.4-0.1-6.5c0-0.1,0-0.2,0-0.3c0,0,0,0,0,0
	c0,1.9,0,3.9,0,5.8C23,44.7,23,45,23,45.4z"/>
<path class="st3" d="M22.9,47.7C22.9,47.7,22.9,47.7,22.9,47.7C23,48.5,23,49.2,23,50c0,0,0,0-0.1,0C22.9,49.2,22.9,48.5,22.9,47.7z
	"/>
<polygon class="st0" points="22.9,38.5 21,37.4 26.9,33.9 28.9,35.1 "/>
<polygon class="st0" points="28.9,39.7 26.9,38.5 24.9,39.6 24.9,41.9 "/>
<polygon class="st0" points="26.9,45.4 24.9,44.2 20.9,46.5 22.9,47.7 "/>
<polygon class="st0" points="32.9,42 34.9,40.8 32.9,39.7 "/>
<path class="st1" d="M30.9,33.9v11.5l5.9-3.4V30.5L30.9,33.9z M34.9,40.8l-2,1.1v-2.3v-4.6l2-1.1V40.8z"/>
<polygon class="st0" points="28.9,32.8 34.9,29.3 36.8,30.5 30.9,33.9 "/>
<polygon class="st1" points="44.8,25.9 38.8,29.3 38.8,40.8 44.8,37.3 44.8,35 40.8,37.4 40.8,30.5 44.8,28.2 "/>
<polygon class="st0" points="40.8,35.1 42.8,33.9 44.9,35 40.8,37.4 "/>
<polygon points="11.2,38.6 13.1,37.5 13.1,30.5 11.2,31.6 "/>
<polygon points="9.1,39.6 7.1,40.8 7.1,36.2 9.1,37.4 "/>
<polygon points="7.1,33.9 7.1,31.7 9.1,32.8 "/>
<polygon points="18.9,38.6 21,37.4 21,35.1 18.9,36.2 "/>
<polygon points="18.9,47.7 21,46.5 21,44.3 18.9,45.4 "/>
<polygon points="17,42 17,37.5 15,36.3 15,43.1 "/>
<polygon points="21,37.4 22.9,38.5 22.9,45.4 21,44.3 "/>
<polygon points="26.9,43.1 26.9,45.4 24.9,44.2 "/>
<polygon points="22.9,47.7 22.9,50 20.9,48.8 20.9,46.5 "/>
<polygon points="34.9,33.9 34.9,40.8 32.9,39.7 32.9,35.1 "/>
<polygon points="28.9,32.8 28.9,44.2 30.9,45.4 30.9,33.9 "/>
<polygon points="38.8,29.3 36.8,28.2 36.8,39.7 38.8,40.8 "/>
<polygon class="st0" points="36.8,28.2 38.8,29.3 44.8,25.9 42.8,24.7 "/>
<ellipse cx="32.2" cy="11.3" rx="1.8" ry="2.9"/>
<g>
	<polyline class="st4" points="29.6,14.3 32.9,16.2 30.1,17.8 29.8,18.7 28.5,19.5 27.1,19.5 26,20.1 22.9,18.1 29.6,14.3 	"/>
	<polyline class="st4" points="29.6,14.3 32.9,16.2 30.1,17.8 29.8,18.7 28.5,19.5 27.1,19.5 26,20.1 22.9,18.1 29.6,14.3 	"/>
	<polyline class="st4" points="29.6,14.7 32.9,16.6 30.1,18.2 29.8,19.1 28.5,19.9 27.1,19.9 26,20.5 22.9,18.5 29.6,14.7 	"/>
	<polyline class="st5" points="29.6,14.3 32.9,16.2 30.1,17.8 29.8,18.7 28.5,19.5 27.1,19.5 26,20.1 22.9,18.1 29.6,14.3 	"/>
	<polyline points="32.9,16.2 30.1,17.8 29.8,18.7 28.5,19.5 27.1,19.5 26,20.1 26,20.5 27.1,19.9 28.5,19.9 29.8,19.1 30.1,18.2 
		32.9,16.6 32.9,16.2 	"/>
</g>
<polyline class="st6" points="32.6,22.5 35.9,24.4 31.7,26.8 28.6,24.8 32.6,22.5 "/>
<polyline class="st1" points="32,19.7 35.9,22.1 30.6,25.1 26.9,22.8 32,19.7 "/>
<polyline points="26.9,25.1 26.9,22.8 30.6,25.1 30.6,27.5 26.9,25.1 "/>
<polyline class="st4" points="29.6,15.2 32.9,17.2 30.1,18.7 29.8,19.7 28.5,20.5 27.1,20.5 26,21.1 22.9,19.1 29.6,15.2 "/>
<polyline class="st4" points="29.6,15.2 32.9,17.2 30.1,18.7 29.8,19.7 28.5,20.5 27.1,20.5 26,21.1 22.9,19.1 29.6,15.2 "/>
<polyline class="st4" points="29.6,15.6 32.9,17.5 30.1,19.1 29.8,20.1 28.5,20.9 27.1,20.9 26,21.5 22.9,19.5 29.6,15.6 "/>
<polyline class="st1" points="29.6,15.2 32.9,17.2 30.1,18.7 29.8,19.7 28.5,20.5 27.1,20.5 26,21.1 22.9,19.1 29.6,15.2 "/>
<polyline class="st4" points="29.6,14.3 32.9,16.2 30.1,17.8 29.8,18.7 28.5,19.5 27.1,19.5 26,20.1 22.9,18.1 29.6,14.3 "/>
<polyline class="st4" points="29.6,14.3 32.9,16.2 30.1,17.8 29.8,18.7 28.5,19.5 27.1,19.5 26,20.1 22.9,18.1 29.6,14.3 "/>
<polyline class="st4" points="29.6,14.7 32.9,16.6 30.1,18.2 29.8,19.1 28.5,19.9 27.1,19.9 26,20.5 22.9,18.5 29.6,14.7 "/>
<polyline class="st1" points="29.6,14.3 32.9,16.2 30.1,17.8 29.8,18.7 28.5,19.5 27.1,19.5 26,20.1 22.9,18.1 29.6,14.3 "/>
<polyline class="st4" points="29.6,13.1 32.9,15.1 30.1,16.7 29.8,17.6 28.5,18.4 27.1,18.4 26,19 22.9,17 29.6,13.1 "/>
<polyline class="st4" points="29.6,13.1 32.9,15.1 30.1,16.7 29.8,17.6 28.5,18.4 27.1,18.4 26,19 22.9,17 29.6,13.1 "/>
<polyline class="st4" points="29.6,13.5 32.9,15.5 30.1,17.1 29.8,18 28.5,18.8 27.1,18.8 26,19.4 22.9,17.4 29.6,13.5 "/>
<polyline class="st1" points="29.6,13.1 32.9,15.1 30.1,16.7 29.8,17.6 28.5,18.4 27.1,18.4 26,19 22.9,17 29.6,13.1 "/>
<g>
	<ellipse cx="29.4" cy="19.5" rx="0.3" ry="0.2"/>
	<ellipse cx="28.6" cy="20" rx="0.3" ry="0.2"/>
	<ellipse cx="29.4" cy="18.6" rx="0.3" ry="0.2"/>
	<ellipse cx="28.6" cy="19" rx="0.3" ry="0.2"/>
	<polyline points="28.3,20 28.9,20 28.9,19.7 28.5,19.9 28.3,19.9 28.3,20 	"/>
	<polyline points="29.7,19.5 29.1,19.5 29.7,19.2 29.7,19.5 	"/>
	<polyline points="28.3,19 28.3,18.8 28.5,18.8 28.9,18.6 28.9,19 28.3,19 	"/>
	<polyline points="29.1,18.6 29.1,18.5 29.7,18.1 29.7,18.6 29.1,18.6 	"/>
</g>
<g>
	<ellipse cx="29.4" cy="17.5" rx="0.3" ry="0.2"/>
	<ellipse cx="28.6" cy="17.9" rx="0.3" ry="0.2"/>
	<polygon points="28.9,14.6 26.1,12.8 25.8,13.3 28.3,14.9 28.3,17.9 28.9,17.9 28.9,14.6 28.9,14.6 	"/>
	<polygon points="29.7,14.2 26.9,12.4 26.6,12.9 29.1,14.5 29.1,17.5 29.7,17.5 29.7,14.2 29.7,14.2 	"/>
</g>
<ellipse cx="32.2" cy="22.1" rx="1.8" ry="1.1"/>
<ellipse class="st1" cx="32.2" cy="22.1" rx="0.3" ry="0.2"/>
<ellipse class="st1" cx="32.2" cy="11.3" rx="0.4" ry="0.7"/>
<polygon class="st7" points="31.4,16 31.4,16.5 31.6,17 31.6,17.4 31.4,17.9 31.4,18.4 32.5,17.8 32.5,17.2 32.7,16.8 32.7,16.4 
	32.5,15.8 32.5,15.3 "/>
<g>
	<polyline points="32.9,17.2 30.1,18.7 29.8,19.7 28.5,20.5 27.1,20.5 26,21.1 26,21.5 27.1,20.9 28.5,20.9 29.8,20.1 30.1,19.1 
		32.9,17.5 32.9,17.2 	"/>
	<polyline points="32.9,16.2 30.1,17.8 29.8,18.7 28.5,19.5 27.1,19.5 26,20.1 26,20.5 27.1,19.9 28.5,19.9 29.8,19.1 30.1,18.2 
		32.9,16.6 32.9,16.2 	"/>
	<polyline points="32.9,15.1 30.1,16.7 29.8,17.6 28.5,18.4 27.1,18.4 26,19 26,19.4 27.1,18.8 28.5,18.8 29.8,18 30.1,17.1 
		32.9,15.5 32.9,15.1 	"/>
	<polygon points="31.5,16.1 31.5,16.7 31.8,17.2 31.8,17.6 31.5,18.1 31.5,18.6 32.7,18 32.7,17.4 32.9,16.9 32.9,16.6 32.7,16 
		32.7,15.5 	"/>
</g>
<path d="M15,8c0.3,0.1,0.6,0.3,0.8,0.4c1.6,0.9,3.3,1.9,4.9,2.8c0.6,0.4,1.2,0.7,1.9,1.1c0.1,0.1,0.2,0.1,0.3,0.2c0,2.9,0,5.8,0,8.7
	c0,0.2,0,0.3,0,0.5c-0.4-0.2-0.9-0.5-1.3-0.7c-0.8-0.5-1.7-1-2.5-1.4c-0.1-0.1-0.2-0.1-0.4,0c-0.5,0.3-1.1,0.6-1.7,1
	c-0.1,0.1-0.2,0.1-0.3,0c-0.2-0.1-0.5-0.3-0.7-0.4c-0.4-0.2-0.7-0.5-1.2-0.6c0-0.1,0-0.1,0-0.2c0-3.7,0-7.4,0-11.1
	C15,8.1,15,8.1,15,8z"/>
<path d="M22.9,33.2c0-0.1-0.1,0-0.1,0c-0.4-0.2-0.8-0.4-1.1-0.6c-0.7-0.4-1.3-0.8-2-1.2c-0.8-0.5-1.6-0.9-2.4-1.4
	c-0.7-0.4-1.3-0.8-2-1.2c-0.1,0-0.1,0-0.2-0.1c0-0.1,0-0.1-0.1-0.1c0-1.5,0-3,0-4.5c0.2,0,0.3,0.1,0.4,0.2c0.4,0.3,0.9,0.5,1.3,0.8
	c0.2,0.1,0.3,0.1,0.5,0c0.5-0.3,1-0.6,1.5-0.9c0.1,0,0.2-0.1,0.3,0c0.9,0.5,1.8,1,2.7,1.6c0.4,0.2,0.8,0.5,1.2,0.6
	c0,0.2,0,0.3,0,0.5c0,1.3,0,2.6,0,3.9"/>
<path class="st0" d="M22.9,26.3c-0.4-0.2-0.8-0.4-1.2-0.6c-0.9-0.5-1.8-1-2.7-1.6c-0.1-0.1-0.2,0-0.3,0c-0.5,0.3-1,0.6-1.5,0.9
	c-0.2,0.1-0.3,0.1-0.5,0c-0.4-0.3-0.9-0.5-1.3-0.8c-0.1-0.1-0.3-0.2-0.4-0.2c0-0.8,0-1.6,0-2.3c0.1,0,0.1,0,0.2,0.1
	c0.5,0.3,1.1,0.6,1.6,0.9c0.1,0.1,0.2,0.1,0.4,0c0.5-0.3,1.1-0.6,1.6-0.9c0.1-0.1,0.2-0.1,0.4,0c0.8,0.5,1.7,1,2.5,1.4
	c0.4,0.2,0.8,0.5,1.3,0.7c0.1,0.1,0,0.2,0,0.3c0,0.6,0,1.1,0,1.7C22.9,26.1,23,26.2,22.9,26.3z"/>
<path class="st1" d="M22.9,24c-0.5-0.2-0.9-0.5-1.3-0.7c-0.8-0.5-1.7-1-2.5-1.4c-0.1-0.1-0.2-0.1-0.4,0c-0.5,0.3-1.1,0.6-1.6,0.9
	c-0.1,0.1-0.2,0.1-0.4,0c-0.5-0.3-1.1-0.6-1.6-0.9c-0.1,0-0.1-0.1-0.2-0.1c0-0.8,0-1.5,0-2.3c0.4,0.2,0.8,0.4,1.2,0.6
	c0.2,0.1,0.5,0.3,0.7,0.4c0.1,0.1,0.2,0.1,0.3,0c0.5-0.3,1.1-0.6,1.7-1c0.1-0.1,0.2-0.1,0.4,0c0.8,0.5,1.7,1,2.5,1.4
	c0.4,0.2,0.9,0.5,1.3,0.7C22.9,22.5,22.9,23.2,22.9,24z"/>
<path d="M36.8,6.9c-0.2,0-0.4,0.2-0.5,0.3c-2.6,1.5-5.2,3-7.8,4.5c-1.1,0.7-2.3,1.3-3.4,2c-0.1,0.1-0.2,0.1-0.2,0.2
	c0,3.8,0,7.6,0,11.4l0,0c0,0.7,0,1.5,0,2.2c0,0,0,0.1,0,0.1c0,0.7,0,1.5,0,2.2c0,0,0,0,0,0c0,0,0,0,0,0l0,0c0,0.7,0,1.3,0,2
	c0,0.1,0,0.2,0,0.2c0.6-0.4,1.2-0.7,1.8-1.1c0.1,0,0.2-0.1,0.2-0.1c0.6-0.3,1.2-0.7,1.8-1c0.1,0,0.1,0,0.1-0.1c0,0,0.1,0,0.1,0
	c0.6-0.4,1.2-0.7,1.8-1.1c0,0,0,0,0.1,0c0.6-0.3,1.1-0.7,1.7-1c0.6-0.4,1.3-0.7,1.9-1.1c0.7-0.4,1.5-0.9,2.2-1.3
	c0.1-0.1,0.2-0.1,0.2-0.3C36.8,19,36.8,12.9,36.8,6.9z M26.4,15c0.9-0.5,1.7-1,2.6-1.5c2-1.1,4-2.3,6-3.4c0.1-0.1,0.2-0.2,0.4-0.2
	c0,3.9,0,7.7,0,11.6l-9.1,5.1c0-0.3,0-0.7,0-1c0,0,0,0,0-0.1c0-0.6,0-1.1,0-1.7l0,0c0-2.9,0-5.8,0-8.7C26.3,15.1,26.4,15,26.4,15z"
	/>
<polyline class="st1" points="32.7,15.5 32.5,15.3 31.4,16 31.5,16.1 32.7,15.5 "/>
<polyline class="st1" points="31.4,16 31.4,16.5 31.6,17 31.6,17.4 31.4,17.9 31.4,18.4 31.5,18.6 31.5,18.1 31.8,17.6 31.8,17.2 
	31.5,16.7 31.5,16.1 31.4,16 "/>
<polygon class="st1" points="24.9,29.8 22.9,30.9 22.9,33.2 24.8,32.1 25,32 "/>
<path class="st1" d="M36.8,4.5c-0.3,0.2-0.6,0.4-1,0.6c-1.7,1-3.4,2-5.1,2.9c-1.8,1-3.5,2-5.3,3.1c-0.8,0.5-1.7,1-2.6,1.5
	c0,2.9,0,5.8,0,8.7c0,0.2,0,0.3,0,0.5c0,0.8,0,1.5,0,2.3c0.1,0.1,0,0.2,0,0.3c0,0.6,0,1.1,0,1.7c0,0.1,0,0.2,0,0.2
	c0,0.2,0,0.3,0,0.5v6.4l2-1.1l0-6.8c0-3.8,0-7.6,0-11.4c0-0.1,0.1-0.2,0.2-0.2c1.1-0.7,2.3-1.3,3.4-2c2.6-1.5,5.2-3,7.8-4.5
	c0.2-0.1,0.3-0.2,0.5-0.3C36.8,6.1,36.8,5.3,36.8,4.5z"/>
<polygon class="st1" points="28.9,35.1 22.9,38.5 22.9,45.4 26.9,43.1 26.9,45.4 22.9,47.7 22.9,50 28.9,46.5 28.9,39.7 24.9,41.9 
	24.9,39.6 28.9,37.4 "/>
</svg>
